<svg width="39" height="31" viewBox="0 0 39 31" fill="none" xmlns="http://www.w3.org/2000/svg">
<path d="M11.7 15.5C15.472 15.5 18.525 12.4666 18.525 8.71875C18.525 4.9709 15.472 1.9375 11.7 1.9375C7.92797 1.9375 4.875 4.9709 4.875 8.71875C4.875 12.4666 7.92797 15.5 11.7 15.5ZM16.38 17.4375H15.8742C14.6067 18.043 13.1991 18.4062 11.7 18.4062C10.2009 18.4062 8.79938 18.043 7.52578 17.4375H7.02C3.14438 17.4375 0 20.5617 0 24.4125V26.1562C0 27.7607 1.31016 29.0625 2.925 29.0625H20.475C22.0898 29.0625 23.4 27.7607 23.4 26.1562V24.4125C23.4 20.5617 20.2556 17.4375 16.38 17.4375ZM29.25 15.5C32.4797 15.5 35.1 12.8965 35.1 9.6875C35.1 6.47852 32.4797 3.875 29.25 3.875C26.0203 3.875 23.4 6.47852 23.4 9.6875C23.4 12.8965 26.0203 15.5 29.25 15.5ZM32.175 17.4375H31.9434C31.0964 17.7281 30.2006 17.9219 29.25 17.9219C28.2994 17.9219 27.4036 17.7281 26.5566 17.4375H26.325C25.0819 17.4375 23.9363 17.7947 22.9308 18.3699C24.4177 19.9623 25.35 22.0754 25.35 24.4125V26.7375C25.35 26.8707 25.3195 26.9979 25.3134 27.125H36.075C37.6898 27.125 39 25.8232 39 24.2188C39 20.4709 35.947 17.4375 32.175 17.4375Z" fill="#74B5FF"/>
</svg>
