<svg width="40" height="40" viewBox="0 0 40 40" fill="none" xmlns="http://www.w3.org/2000/svg">
<path fill-rule="evenodd" clip-rule="evenodd" d="M6.66667 5C6.22464 5 5.80072 5.17559 5.48816 5.48816C5.17559 5.80072 5 6.22464 5 6.66667V20C5 20.442 5.17559 20.866 5.48816 21.1785C5.80072 21.4911 6.22464 21.6667 6.66667 21.6667H8.33333V25C8.3334 25.3296 8.43119 25.6517 8.61433 25.9258C8.79747 26.1998 9.05774 26.4133 9.36224 26.5395C9.66674 26.6656 10.0018 26.6986 10.3251 26.6343C10.6483 26.57 10.9452 26.4114 11.1783 26.1783L15.69 21.6667H25C25.442 21.6667 25.8659 21.4911 26.1785 21.1785C26.4911 20.866 26.6667 20.442 26.6667 20V6.66667C26.6667 6.22464 26.4911 5.80072 26.1785 5.48816C25.8659 5.17559 25.442 5 25 5H6.66667Z" fill="#74B5FF"/>
<path fill-rule="evenodd" clip-rule="evenodd" d="M13.3716 28.6917C13.4272 28.6406 13.4816 28.5883 13.535 28.535L17.0716 25H25C26.3261 25 27.5978 24.4732 28.5355 23.5355C29.4732 22.5978 30 21.3261 30 20V13.3333H33.3333C33.7753 13.3333 34.1993 13.5089 34.5118 13.8215C34.8244 14.134 35 14.558 35 15V28.3333C35 28.7754 34.8244 29.1993 34.5118 29.5118C34.1993 29.8244 33.7753 30 33.3333 30H31.6666V33.3333C31.6666 33.6629 31.5688 33.9851 31.3856 34.2591C31.2025 34.5331 30.9422 34.7467 30.6377 34.8728C30.3332 34.9989 29.9982 35.0319 29.6749 34.9676C29.3517 34.9034 29.0547 34.7447 28.8216 34.5117L24.31 30H15C14.6201 30.0001 14.2516 29.8705 13.9554 29.6326C13.6593 29.3946 13.4533 29.0627 13.3716 28.6917Z" fill="#74B5FF"/>
</svg>
