<svg width="28" height="8" viewBox="0 0 28 8" fill="none" xmlns="http://www.w3.org/2000/svg">
<path d="M14.0001 7.33334C14.8841 7.33334 15.732 6.98215 16.3571 6.35703C16.9822 5.73191 17.3334 4.88407 17.3334 4.00001C17.3334 3.11596 16.9822 2.26811 16.3571 1.64299C15.732 1.01787 14.8841 0.666677 14.0001 0.666677C13.116 0.666677 12.2682 1.01787 11.6431 1.64299C11.0179 2.26811 10.6667 3.11596 10.6667 4.00001C10.6667 4.88407 11.0179 5.73191 11.6431 6.35703C12.2682 6.98215 13.116 7.33334 14.0001 7.33334ZM4.00008 7.33334C4.88414 7.33334 5.73198 6.98215 6.3571 6.35703C6.98223 5.73191 7.33341 4.88407 7.33341 4.00001C7.33341 3.11596 6.98223 2.26811 6.3571 1.64299C5.73198 1.01787 4.88414 0.666677 4.00008 0.666677C3.11603 0.666677 2.26818 1.01787 1.64306 1.64299C1.01794 2.26811 0.666748 3.11596 0.666748 4.00001C0.666748 4.88407 1.01794 5.73191 1.64306 6.35703C2.26818 6.98215 3.11603 7.33334 4.00008 7.33334ZM24.0001 7.33334C24.8841 7.33334 25.732 6.98215 26.3571 6.35703C26.9822 5.73191 27.3334 4.88407 27.3334 4.00001C27.3334 3.11596 26.9822 2.26811 26.3571 1.64299C25.732 1.01787 24.8841 0.666677 24.0001 0.666677C23.116 0.666677 22.2682 1.01787 21.6431 1.64299C21.0179 2.26811 20.6667 3.11596 20.6667 4.00001C20.6667 4.88407 21.0179 5.73191 21.6431 6.35703C22.2682 6.98215 23.116 7.33334 24.0001 7.33334Z" fill="black"/>
</svg>
